<?xml version="1.0" encoding="UTF-8" standalone="no"?> <!-- Creator: CorelDRAW --> <svg xmlns:dc="http://purl.org/dc/elements/1.1/" xmlns:cc="http://creativecommons.org/ns#" xmlns:rdf="http://www.w3.org/1999/02/22-rdf-syntax-ns#" xmlns:svg="http://www.w3.org/2000/svg" xmlns="http://www.w3.org/2000/svg" xmlns:sodipodi="http://sodipodi.sourceforge.net/DTD/sodipodi-0.dtd" xmlns:inkscape="http://www.inkscape.org/namespaces/inkscape" xml:space="preserve" width="122.62535" height="92.565353" style="fill-rule:evenodd" viewBox="0 0 34.607599 26.124" id="svg2" inkscape:version="0.48.0 r9654" sodipodi:docname="ps.svg"><metadata id="metadata36"></metadata> <defs id="defs4"> <style type="text/css" id="style6"> .fil1 {fill:#759EB9} .fil3 {fill:#C20244} .fil0 {fill:#00407A} .fil2 {fill:#8F1736} </style> </defs> <g id="Umriss" transform="translate(-87.372401,-135.622)"> <metadata id="CorelCorpID_0Corel-Layer"></metadata> <path class="fil0" d="m 96.6979,135.994 8.4582,0 0,13.7668 -8.4582,0 0,-2.7926 c 3.3549,0 6.0756,-1.9055 6.0756,-4.2552 0,-2.3497 -2.7207,-4.2552 -6.0756,-4.2552 l 0,-2.4638 z" id="path10" inkscape:connector-curvature="0" style="fill:#00407a"></path> <path class="fil1" d="m 96.364,135.622 8.4582,0 0,13.7668 -8.4582,0 0,-2.7926 c 3.3549,0 6.0756,-1.9055 6.0756,-4.2552 0,-2.3497 -2.7207,-4.2552 -6.0756,-4.2552 l 0,-2.4638 z" id="path12" inkscape:connector-curvature="0" style="fill:#759eb9"></path> <rect class="fil2" transform="matrix(0.786991,0.749549,-0.749549,0.786991,116.078,144.496)" width="6.3499999" height="3.7084" id="rect14" x="0" y="0" style="fill:#8f1736"></rect> <path class="fil2" d="m 87.7189,161.724 c 0,-8.5852 0,-17.1704 0,-25.7556 0.8636,0 1.7526,0 2.6416,0 0,8.5852 0,17.1704 0,25.7556 -0.889,0 -1.778,0 -2.6416,0 z" id="path16" inkscape:connector-curvature="0" style="fill:#8f1736"></path> <path class="fil2" d="m 92.4192,161.724 c 0,-8.5852 0,-17.1704 0,-25.7556 0.9398,0 1.8796,0 2.8194,0 0,8.5852 0,17.1704 0,25.7556 -0.9398,0 -1.8796,0 -2.8194,0 z" id="path18" inkscape:connector-curvature="0" style="fill:#8f1736"></path> <path class="fil0" d="m 121.98,135.938 c -3.4179,3.4148 -6.8356,6.8042 -10.2788,10.1934 5e-4,-0.1016 0.001,-0.2286 0.001,-0.3556 4e-4,-0.1016 10e-4,-0.2286 0.002,-0.3556 4e-4,-0.1015 9e-4,-0.2285 0.001,-0.3555 4e-4,-0.1016 9e-4,-0.2286 0.002,-0.3556 4e-4,-0.1016 9e-4,-0.2286 0.001,-0.3556 5e-4,-0.1016 9e-4,-0.2032 10e-4,-0.3302 4e-4,-0.1016 0.001,-0.2286 0.002,-0.3556 4e-4,-0.1016 9e-4,-0.2286 10e-4,-0.3556 4e-4,-0.1016 9e-4,-0.2286 0.002,-0.3556 4e-4,-0.1016 9e-4,-0.2286 10e-4,-0.3556 5e-4,-0.1016 0.001,-0.2286 0.001,-0.3556 4e-4,-0.1016 0.001,-0.2286 0.002,-0.3556 4e-4,-0.1016 9e-4,-0.2286 0.001,-0.3556 4e-4,-0.1016 9e-4,-0.2286 0.002,-0.3556 4e-4,-0.1016 8e-4,-0.2032 0.001,-0.3302 5e-4,-0.1016 0.001,-0.2286 0.001,-0.3556 4e-4,-0.1016 10e-4,-0.2286 0.002,-0.3556 4e-4,-0.1016 9e-4,-0.2286 0.001,-0.3556 4e-4,-0.1016 9e-4,-0.2286 0.002,-0.3556 4e-4,-0.1016 9e-4,-0.2286 0.001,-0.3556 5e-4,-0.1016 10e-4,-0.2286 0.002,-0.3556 4e-4,-0.1016 0.001,-0.2286 0.001,-0.3556 4e-4,-0.1016 9e-4,-0.2286 0.002,-0.3556 4e-4,-0.1016 8e-4,-0.2032 0.001,-0.3302 4e-4,-0.1016 9e-4,-0.2286 10e-4,-0.3556 5e-4,-0.1016 0.001,-0.2286 0.002,-0.3556 4e-4,-0.1016 10e-4,-0.2286 10e-4,-0.3556 4e-4,-0.1016 9e-4,-0.2286 0.002,-0.3556 4e-4,-0.1016 9e-4,-0.2286 10e-4,-0.3556 0.127,6e-4 0.254,0.001 0.3556,0.002 0.127,5e-4 0.254,0.001 0.3556,0.001 0.1269,5e-4 0.2539,0.001 0.3555,0.001 0.127,5e-4 0.254,10e-4 0.3556,10e-4 0.127,5e-4 0.254,0.001 0.3556,0.001 0.127,6e-4 0.2286,0.001 0.3302,0.001 0.127,5e-4 0.254,0.001 0.3556,0.001 0.127,5e-4 0.254,0.001 0.3556,0.002 0.127,5e-4 0.254,10e-4 0.3556,10e-4 0.127,5e-4 0.254,0.001 0.3556,0.001 0.127,6e-4 0.254,0.001 0.3556,0.001 0.127,5e-4 0.254,0.001 0.3556,0.002 0.127,5e-4 0.254,0.001 0.3556,0.001 0.127,5e-4 0.254,10e-4 0.3556,10e-4 0.127,5e-4 0.2286,9e-4 0.3302,0.001 0.127,6e-4 0.254,0.001 0.3556,0.001 0.127,5e-4 0.254,0.001 0.3556,0.001 0.127,5e-4 0.254,0.001 0.3556,0.001 0.127,5e-4 0.254,0.001 0.3556,0.002 0.127,5e-4 0.254,0.001 0.3556,0.001 0.127,6e-4 0.254,0.001 0.3556,0.001 0.127,5e-4 0.254,0.001 0.3556,0.001 0.127,5e-4 0.254,0.001 0.3556,0.002 0.127,5e-4 0.2286,9e-4 0.3302,10e-4 0.127,5e-4 0.254,0.001 0.3556,0.001 0.127,6e-4 0.254,0.001 0.3556,0.002 0.127,5e-4 0.254,0.001 0.3556,0.001 0.127,5e-4 0.254,0.001 0.3556,0.001 0.127,5e-4 0.254,10e-4 0.3556,10e-4 z" id="path20" inkscape:connector-curvature="0" style="fill:#00407a"></path> <path class="fil1" d="m 121.795,135.648 c -3.4036,3.429 -6.8072,6.8326 -10.2362,10.2362 0,-0.1016 0,-0.2286 0,-0.3556 0,-0.1016 0,-0.2286 0,-0.3556 0,-0.1016 0,-0.2286 0,-0.3556 0,-0.1016 0,-0.2286 0,-0.3556 0,-0.1016 0,-0.2286 0,-0.3556 0,-0.1016 0,-0.2032 0,-0.3302 0,-0.1016 0,-0.2286 0,-0.3556 0,-0.1016 0,-0.2286 0,-0.3556 0,-0.1016 0,-0.2286 0,-0.3556 0,-0.1016 0,-0.2286 0,-0.3556 0,-0.1016 0,-0.2286 0,-0.3556 0,-0.1016 0,-0.2286 0,-0.3556 0,-0.1016 0,-0.2286 0,-0.3556 0,-0.1016 0,-0.2286 0,-0.3556 0,-0.1016 0,-0.2032 0,-0.3302 0,-0.1016 0,-0.2286 0,-0.3556 0,-0.1016 0,-0.2286 0,-0.3556 0,-0.1016 0,-0.2286 0,-0.3556 0,-0.1016 0,-0.2286 0,-0.3556 0,-0.1016 0,-0.2286 0,-0.3556 0,-0.1016 0,-0.2286 0,-0.3556 0,-0.1016 0,-0.2286 0,-0.3556 0,-0.1016 0,-0.2286 0,-0.3556 0,-0.1016 0,-0.2032 0,-0.3302 0,-0.1016 0,-0.2286 0,-0.3556 0,-0.1016 0,-0.2286 0,-0.3556 0,-0.1016 0,-0.2286 0,-0.3556 0,-0.1016 0,-0.2286 0,-0.3556 0,-0.1016 0,-0.2286 0,-0.3556 0.127,0 0.254,0 0.3556,0 0.127,0 0.254,0 0.3556,0 0.127,0 0.254,0 0.3556,0 0.127,0 0.254,0 0.3556,0 0.127,0 0.254,0 0.3556,0 0.127,0 0.2286,0 0.3302,0 0.127,0 0.254,0 0.3556,0 0.127,0 0.254,0 0.3556,0 0.127,0 0.254,0 0.3556,0 0.127,0 0.254,0 0.3556,0 0.127,0 0.254,0 0.3556,0 0.127,0 0.254,0 0.3556,0 0.127,0 0.254,0 0.3556,0 0.127,0 0.254,0 0.3556,0 0.127,0 0.2286,0 0.3302,0 0.127,0 0.254,0 0.3556,0 0.127,0 0.254,0 0.3556,0 0.127,0 0.254,0 0.3556,0 0.127,0 0.254,0 0.3556,0 0.127,0 0.254,0 0.3556,0 0.127,0 0.254,0 0.3556,0 0.127,0 0.254,0 0.3556,0 0.127,0 0.254,0 0.3556,0 0.127,0 0.2286,0 0.3302,0 0.127,0 0.254,0 0.3556,0 0.127,0 0.254,0 0.3556,0 0.127,0 0.254,0 0.3556,0 0.127,0 0.254,0 0.3556,0 0.127,0 0.254,0 0.3556,0 z" id="path22" inkscape:connector-curvature="0" style="fill:#759eb9"></path> <rect class="fil3" transform="matrix(0.786991,0.749549,-0.749549,0.786991,115.744,144.347)" width="6.3499999" height="3.7084" id="rect24" x="0" y="0" style="fill:#c20244"></rect> <path class="fil0" d="m 111.14,161.746 c 3.4036,-3.429 6.8072,-6.8326 10.2362,-10.2362 0,0.1016 0,0.2286 0,0.3556 0,0.1016 0,0.2286 0,0.3556 0,0.1016 0,0.2286 0,0.3556 0,0.1016 0,0.2286 0,0.3556 0,0.1016 0,0.2286 0,0.3556 0,0.1016 0,0.2032 0,0.3302 0,0.1016 0,0.2286 0,0.3556 0,0.1016 0,0.2286 0,0.3556 0,0.1016 0,0.2286 0,0.3556 0,0.1016 0,0.2286 0,0.3556 0,0.1016 0,0.2286 0,0.3556 0,0.1016 0,0.2286 0,0.3556 0,0.1016 0,0.2286 0,0.3556 0,0.1016 0,0.2286 0,0.3556 0,0.1016 0,0.2032 0,0.3302 0,0.1016 0,0.2286 0,0.3556 0,0.1016 0,0.2286 0,0.3556 0,0.1016 0,0.2286 0,0.3556 0,0.1016 0,0.2286 0,0.3556 0,0.1016 0,0.2286 0,0.3556 0,0.1016 0,0.2286 0,0.3556 0,0.1016 0,0.2286 0,0.3556 0,0.1016 0,0.2286 0,0.3556 0,0.1016 0,0.2032 0,0.3302 0,0.1016 0,0.2286 0,0.3556 0,0.1016 0,0.2286 0,0.3556 0,0.1016 0,0.2286 0,0.3556 0,0.1016 0,0.2286 0,0.3556 0,0.1016 0,0.2286 0,0.3556 -0.127,0 -0.254,0 -0.3556,0 -0.127,0 -0.254,0 -0.3556,0 -0.127,0 -0.254,0 -0.3556,0 -0.127,0 -0.254,0 -0.3556,0 -0.127,0 -0.254,0 -0.3556,0 -0.127,0 -0.2286,0 -0.3302,0 -0.127,0 -0.254,0 -0.3556,0 -0.127,0 -0.254,0 -0.3556,0 -0.127,0 -0.254,0 -0.3556,0 -0.127,0 -0.254,0 -0.3556,0 -0.127,0 -0.254,0 -0.3556,0 -0.127,0 -0.254,0 -0.3556,0 -0.127,0 -0.254,0 -0.3556,0 -0.127,0 -0.254,0 -0.3556,0 -0.127,0 -0.2286,0 -0.3302,0 -0.127,0 -0.254,0 -0.3556,0 -0.127,0 -0.254,0 -0.3556,0 -0.127,0 -0.254,0 -0.3556,0 -0.127,0 -0.254,0 -0.3556,0 -0.127,0 -0.254,0 -0.3556,0 -0.127,0 -0.254,0 -0.3556,0 -0.127,0 -0.254,0 -0.3556,0 -0.127,0 -0.254,0 -0.3556,0 -0.127,0 -0.2286,0 -0.3302,0 -0.127,0 -0.254,0 -0.3556,0 -0.127,0 -0.254,0 -0.3556,0 -0.127,0 -0.254,0 -0.3556,0 -0.127,0 -0.254,0 -0.3556,0 -0.127,0 -0.254,0 -0.3556,0 z" id="path26" inkscape:connector-curvature="0" style="fill:#00407a"></path> <path class="fil3" d="m 87.3724,161.378 c 0,-8.5852 0,-17.1704 0,-25.7556 0.8636,0 1.7526,0 2.6416,0 0,8.5852 0,17.1704 0,25.7556 -0.889,0 -1.778,0 -2.6416,0 z" id="path28" inkscape:connector-curvature="0" style="fill:#c20244"></path> <path class="fil3" d="m 92.1222,161.378 c 0,-8.5852 0,-17.1704 0,-25.7556 0.9398,0 1.8796,0 2.8194,0 0,8.5852 0,17.1704 0,25.7556 -0.9398,0 -1.8796,0 -2.8194,0 z" id="path30" inkscape:connector-curvature="0" style="fill:#c20244"></path> <path class="fil1" d="m 110.817,161.378 c 3.4036,-3.429 6.8072,-6.8326 10.2362,-10.2362 0,0.1016 0,0.2286 0,0.3556 0,0.1016 0,0.2286 0,0.3556 0,0.1016 0,0.2286 0,0.3556 0,0.1016 0,0.2286 0,0.3556 0,0.1016 0,0.2286 0,0.3556 0,0.1016 0,0.2032 0,0.3302 0,0.1016 0,0.2286 0,0.3556 0,0.1016 0,0.2286 0,0.3556 0,0.1016 0,0.2286 0,0.3556 0,0.1016 0,0.2286 0,0.3556 0,0.1016 0,0.2286 0,0.3556 0,0.1016 0,0.2286 0,0.3556 0,0.1016 0,0.2286 0,0.3556 0,0.1016 0,0.2286 0,0.3556 0,0.1016 0,0.2032 0,0.3302 0,0.1016 0,0.2286 0,0.3556 0,0.1016 0,0.2286 0,0.3556 0,0.1016 0,0.2286 0,0.3556 0,0.1016 0,0.2286 0,0.3556 0,0.1016 0,0.2286 0,0.3556 0,0.1016 0,0.2286 0,0.3556 0,0.1016 0,0.2286 0,0.3556 0,0.1016 0,0.2286 0,0.3556 0,0.1016 0,0.2032 0,0.3302 0,0.1016 0,0.2286 0,0.3556 0,0.1016 0,0.2286 0,0.3556 0,0.1016 0,0.2286 0,0.3556 0,0.1016 0,0.2286 0,0.3556 0,0.1016 0,0.2286 0,0.3556 -0.127,0 -0.254,0 -0.3556,0 -0.127,0 -0.254,0 -0.3556,0 -0.127,0 -0.254,0 -0.3556,0 -0.127,0 -0.254,0 -0.3556,0 -0.127,0 -0.254,0 -0.3556,0 -0.127,0 -0.2286,0 -0.3302,0 -0.127,0 -0.254,0 -0.3556,0 -0.127,0 -0.254,0 -0.3556,0 -0.127,0 -0.254,0 -0.3556,0 -0.127,0 -0.254,0 -0.3556,0 -0.127,0 -0.254,0 -0.3556,0 -0.127,0 -0.254,0 -0.3556,0 -0.127,0 -0.254,0 -0.3556,0 -0.127,0 -0.254,0 -0.3556,0 -0.127,0 -0.2286,0 -0.3302,0 -0.127,0 -0.254,0 -0.3556,0 -0.127,0 -0.254,0 -0.3556,0 -0.127,0 -0.254,0 -0.3556,0 -0.127,0 -0.254,0 -0.3556,0 -0.127,0 -0.254,0 -0.3556,0 -0.127,0 -0.254,0 -0.3556,0 -0.127,0 -0.254,0 -0.3556,0 -0.127,0 -0.254,0 -0.3556,0 -0.127,0 -0.2286,0 -0.3302,0 -0.127,0 -0.254,0 -0.3556,0 -0.127,0 -0.254,0 -0.3556,0 -0.127,0 -0.254,0 -0.3556,0 -0.127,0 -0.254,0 -0.3556,0 -0.127,0 -0.254,0 -0.3556,0 z" id="path32" inkscape:connector-curvature="0" style="fill:#759eb9"></path> </g> </svg> 